<?xml version="1.0" encoding="utf-8"?>
<!-- Generator: Adobe Illustrator 16.0.3, SVG Export Plug-In . SVG Version: 6.00 Build 0)  -->
<!DOCTYPE svg PUBLIC "-//W3C//DTD SVG 1.1//EN" "http://www.w3.org/Graphics/SVG/1.1/DTD/svg11.dtd">
<svg version="1.1" id="Ebene_1" xmlns="http://www.w3.org/2000/svg" xmlns:xlink="http://www.w3.org/1999/xlink" x="0px" y="0px" width="13mm" height="13mm" viewBox="0 0 42.52 42.52" enable-background="new 0 0 42.52 42.52" xml:space="preserve">
<g transform="translate(-107.73 -241.82)">
		<circle fill="#FFFFFF" cx="128.99" cy="263.08" r="19.843"/>
		<circle fill="#0E4585" cx="128.99" cy="263.079" r="19.564"/>
		<g transform="translate(-0.53177 8.1835)">
			<path fill="#FFFFFF" d="M129.037,239.167c-8.237-0.028-8.169,4.52-8.169,4.52c-0.682,2.49-0.562,3.28-0.67,4.2
			c-0.195,1.723-0.91,1.76-2.052,2.156c-0.579,0.063-0.8,1.022-0.146,1.385c0.646,0.359,1.255,0.571,1.687,0.608l0.073,1.436
			c-0.702,0.062-1.23,0.472-1.114,1.073l1.47,6.094c0.179,0.859,0.685,0.826,0.79,0.788c0.975-0.141,0.758,1.495,1.169,3.011
			c0.444,2.171,0.465,2.625,3.311,4.908c0.743,0.494,1.085,1.169,2.757,1.255h1.292h1.289c1.675-0.086,2.017-0.761,2.759-1.255
			c2.844-2.283,2.868-2.737,3.309-4.908c0.413-1.516,0.196-3.151,1.172-3.011c0.103,0.038,0.61,0.071,0.788-0.788l1.469-6.094
			c0.122-0.602-0.41-1.012-1.108-1.073l0.069-1.436c0.43-0.037,1.042-0.249,1.688-0.608c0.65-0.362,0.432-1.321-0.148-1.385
			c-1.143-0.396-1.854-0.434-2.053-2.156c-0.103-0.92,0.014-1.71-0.668-4.2c0,0,0.068-4.548-8.165-4.52
			c-0.133,0-0.265,0.002-0.399,0.005l-0.021,12.403c2.281-0.055,6.476-0.917,7.676-0.95c-2.023,0.479-4.342,1.063-7.675,1.233
			l-0.014,0.574c1.853-0.15,8.161-1.186,10.713-1.972c0.191-0.072,1.112,0.181,0.215,0.646c0,0-0.989,0.444-1.194,0.523
			c-0.109-0.608-1.039-0.644-1.027,0.122c-0.02,0.236-0.107,2.615-0.107,2.615s-0.002,1.196,0.788,0.25
			c0.506-0.979,0.943-0.537,0.538,0.823c-0.511,2.537-0.902,3.077-1.362,5.412c-0.775,0.078-1.003-0.106-1.254,0.861
			c0,0-0.427,2.69-1.22,4.84c-0.776,0.735-1.744,1.89-4.048,3.367c-0.283,0.156-2.007,0.069-2.007,0.069s-1.727,0.087-2.007-0.069
			c-2.304-1.478-3.272-2.632-4.047-3.367c-0.796-2.149-1.224-4.84-1.224-4.84c-0.249-0.968-0.477-0.783-1.251-0.861
			c-0.461-2.335-0.852-2.875-1.363-5.412c-0.404-1.36,0.032-1.802,0.538-0.823c0.788,0.946,0.788-0.25,0.788-0.25
			s-0.088-2.379-0.107-2.615c0.011-0.766-0.919-0.73-1.028-0.122c-0.205-0.079-1.192-0.523-1.192-0.523
			c-0.899-0.465,0.023-0.718,0.212-0.646c2.553,0.786,8.798,1.806,10.65,1.955l0.011-0.567c-3.336-0.168-5.612-0.745-7.637-1.224
			c1.204,0.033,5.355,0.889,7.639,0.941l0.019-12.395C129.3,239.169,129.166,239.167,129.037,239.167z"/>
			<path fill="#FFFFFF" d="M129.833,239.167c8.233-0.028,8.165,4.52,8.165,4.52c0.682,2.49,0.565,3.28,0.668,4.2
			c0.198,1.723,0.91,1.76,2.053,2.156c0.58,0.063,0.799,1.022,0.148,1.385c-0.646,0.359-1.258,0.571-1.688,0.608l-0.069,1.436
			c0.698,0.062,1.23,0.472,1.108,1.073l-1.469,6.094c-0.178,0.859-0.686,0.826-0.788,0.788c-0.976-0.141-0.759,1.495-1.172,3.011
			c-0.44,2.171-0.465,2.625-3.309,4.908c-0.742,0.494-1.084,1.169-2.759,1.255h-1.289h-1.292c-1.672-0.086-2.014-0.761-2.757-1.255
			c-2.846-2.283-2.866-2.737-3.311-4.908c-0.411-1.516-0.194-3.151-1.169-3.011c-0.105,0.038-0.611,0.071-0.79-0.788l-1.47-6.094
			c-0.116-0.602,0.412-1.012,1.114-1.073l-0.073-1.436c-0.432-0.037-1.041-0.249-1.687-0.608c-0.653-0.362-0.433-1.321,0.146-1.385
			c1.142-0.396,1.856-0.434,2.052-2.156c0.108-0.92-0.012-1.71,0.67-4.2c0,0-0.068-4.548,8.169-4.52
			c0.129,0,0.263,0.002,0.396,0.005l0.022,12.403c-2.283-0.055-6.476-0.917-7.68-0.95c2.024,0.479,4.342,1.063,7.678,1.233
			l0.014,0.574c-1.852-0.15-8.163-1.186-10.716-1.972c-0.188-0.072-1.111,0.181-0.212,0.646c0,0,0.987,0.444,1.192,0.523
			c0.109-0.608,1.039-0.644,1.028,0.122c0.02,0.236,0.107,2.615,0.107,2.615s0,1.196-0.788,0.25
			c-0.506-0.979-0.942-0.537-0.538,0.823c0.512,2.537,0.902,3.077,1.363,5.412c0.774,0.078,1.002-0.106,1.251,0.861
			c0,0,0.428,2.69,1.224,4.84c0.774,0.735,1.743,1.89,4.047,3.367c0.28,0.156,2.007,0.069,2.007,0.069s1.724,0.087,2.007-0.069
			c2.304-1.478,3.271-2.632,4.048-3.367c0.793-2.149,1.22-4.84,1.22-4.84c0.251-0.968,0.479-0.783,1.254-0.861
			c0.46-2.335,0.852-2.875,1.362-5.412c0.405-1.36-0.032-1.802-0.538-0.823c-0.79,0.946-0.788-0.25-0.788-0.25
			s0.088-2.379,0.107-2.615c-0.012-0.766,0.918-0.73,1.027-0.122c0.205-0.079,1.194-0.523,1.194-0.523
			c0.897-0.465-0.023-0.718-0.215-0.646c-2.552,0.786-8.795,1.806-10.648,1.955l-0.01-0.567c3.333-0.168,5.61-0.745,7.634-1.224
			c-1.2,0.033-5.354,0.889-7.635,0.941l-0.02-12.395C129.568,239.169,129.7,239.167,129.833,239.167z"/>
		</g>
	</g>
</svg>
