<?xml version="1.0" encoding="utf-8"?>
<!-- Generator: Adobe Illustrator 16.0.3, SVG Export Plug-In . SVG Version: 6.00 Build 0)  -->
<!DOCTYPE svg PUBLIC "-//W3C//DTD SVG 1.1//EN" "http://www.w3.org/Graphics/SVG/1.1/DTD/svg11.dtd">
<svg version="1.1" xmlns="http://www.w3.org/2000/svg" xmlns:xlink="http://www.w3.org/1999/xlink" x="0px" y="0px" width="13mm" height="13mm" viewBox="0 0 28.35 28.35" enable-background="new 0 0 28.35 28.35" xml:space="preserve">
<g id="Ebene_1" display="none">
		<g transform="translate(-107.73 -241.82)" display="inline">
			<circle fill="#FFFFFF" cx="121.905" cy="255.995" r="12.756"/>
			<circle fill="#0E4585" cx="121.905" cy="255.994" r="12.577"/>
			<g transform="translate(-0.53177 8.1835)">
				<path fill="#FFFFFF" d="M122.125,237.7c-5.295-0.019-5.251,2.905-5.251,2.905c-0.438,1.601-0.361,2.108-0.431,2.7
				c-0.126,1.107-0.585,1.131-1.319,1.386c-0.372,0.041-0.514,0.657-0.094,0.891c0.415,0.23,0.807,0.367,1.084,0.391l0.047,0.923
				c-0.451,0.04-0.791,0.304-0.716,0.69l0.944,3.917c0.115,0.553,0.44,0.531,0.508,0.507c0.627-0.091,0.487,0.961,0.752,1.936
				c0.285,1.396,0.299,1.688,2.128,3.155c0.478,0.317,0.697,0.751,1.772,0.807h0.83h0.829c1.076-0.056,1.296-0.489,1.773-0.807
				c1.828-1.468,1.844-1.76,2.127-3.155c0.266-0.975,0.126-2.026,0.753-1.936c0.066,0.024,0.393,0.046,0.507-0.507l0.944-3.917
				c0.078-0.387-0.264-0.65-0.713-0.69l0.045-0.923c0.276-0.023,0.67-0.16,1.085-0.391c0.418-0.233,0.277-0.85-0.096-0.891
				c-0.734-0.255-1.192-0.278-1.319-1.386c-0.066-0.592,0.009-1.1-0.43-2.7c0,0,0.044-2.924-5.249-2.905
				c-0.085,0-0.17,0.001-0.257,0.003l-0.014,7.974c1.467-0.035,4.163-0.59,4.935-0.611c-1.301,0.308-2.791,0.684-4.934,0.793
				l-0.009,0.369c1.19-0.097,5.246-0.762,6.887-1.268c0.123-0.046,0.715,0.116,0.138,0.415c0,0-0.636,0.286-0.768,0.337
				c-0.07-0.392-0.668-0.414-0.66,0.078c-0.013,0.152-0.069,1.682-0.069,1.682s-0.001,0.769,0.507,0.16
				c0.325-0.629,0.606-0.345,0.346,0.529c-0.328,1.631-0.58,1.979-0.876,3.479c-0.498,0.05-0.645-0.068-0.806,0.554
				c0,0-0.274,1.729-0.784,3.111c-0.499,0.473-1.121,1.215-2.603,2.164c-0.182,0.101-1.29,0.045-1.29,0.045s-1.109,0.056-1.29-0.045
				c-1.48-0.949-2.104-1.691-2.602-2.164c-0.512-1.382-0.786-3.111-0.786-3.111c-0.16-0.622-0.307-0.504-0.805-0.554
				c-0.296-1.501-0.547-1.849-0.876-3.479c-0.26-0.874,0.021-1.158,0.346-0.529c0.507,0.608,0.507-0.16,0.507-0.16
				s-0.057-1.529-0.069-1.682c0.007-0.492-0.591-0.47-0.661-0.078c-0.132-0.051-0.767-0.337-0.767-0.337
				c-0.578-0.299,0.016-0.461,0.137-0.415c1.641,0.506,5.655,1.161,6.847,1.257l0.007-0.364c-2.145-0.108-3.608-0.479-4.909-0.787
				c0.773,0.021,3.442,0.571,4.91,0.605l0.012-7.968C122.294,237.701,122.208,237.7,122.125,237.7z"/>
				<path fill="#FFFFFF" d="M122.637,237.7c5.293-0.019,5.249,2.905,5.249,2.905c0.438,1.601,0.363,2.108,0.43,2.7
				c0.127,1.107,0.585,1.131,1.319,1.386c0.373,0.041,0.514,0.657,0.096,0.891c-0.415,0.23-0.809,0.367-1.085,0.391l-0.045,0.923
				c0.449,0.04,0.791,0.304,0.713,0.69l-0.944,3.917c-0.114,0.553-0.44,0.531-0.507,0.507c-0.627-0.091-0.487,0.961-0.753,1.936
				c-0.283,1.396-0.299,1.688-2.127,3.155c-0.478,0.317-0.697,0.751-1.773,0.807h-0.829h-0.83c-1.075-0.056-1.295-0.489-1.772-0.807
				c-1.829-1.468-1.843-1.76-2.128-3.155c-0.265-0.975-0.125-2.026-0.752-1.936c-0.067,0.024-0.393,0.046-0.508-0.507l-0.944-3.917
				c-0.075-0.387,0.265-0.65,0.716-0.69l-0.047-0.923c-0.277-0.023-0.669-0.16-1.084-0.391c-0.42-0.233-0.278-0.85,0.094-0.891
				c0.734-0.255,1.193-0.278,1.319-1.386c0.069-0.592-0.008-1.1,0.431-2.7c0,0-0.044-2.924,5.251-2.905
				c0.083,0,0.169,0.001,0.255,0.003l0.015,7.974c-1.468-0.035-4.163-0.59-4.937-0.611c1.301,0.308,2.791,0.684,4.936,0.793
				l0.009,0.369c-1.19-0.097-5.248-0.762-6.889-1.268c-0.121-0.046-0.715,0.116-0.137,0.415c0,0,0.635,0.286,0.767,0.337
				c0.07-0.392,0.668-0.414,0.661,0.078c0.013,0.152,0.069,1.682,0.069,1.682s0,0.769-0.507,0.16
				c-0.325-0.629-0.605-0.345-0.346,0.529c0.329,1.631,0.58,1.979,0.876,3.479c0.498,0.05,0.645-0.068,0.805,0.554
				c0,0,0.274,1.729,0.786,3.111c0.498,0.473,1.121,1.215,2.602,2.164c0.181,0.101,1.29,0.045,1.29,0.045s1.108,0.056,1.29-0.045
				c1.481-0.949,2.104-1.691,2.603-2.164c0.51-1.382,0.784-3.111,0.784-3.111c0.161-0.622,0.308-0.504,0.806-0.554
				c0.296-1.501,0.548-1.849,0.876-3.479c0.261-0.874-0.021-1.158-0.346-0.529c-0.508,0.608-0.507-0.16-0.507-0.16
				s0.057-1.529,0.069-1.682c-0.008-0.492,0.59-0.47,0.66-0.078c0.132-0.051,0.768-0.337,0.768-0.337
				c0.577-0.299-0.015-0.461-0.138-0.415c-1.641,0.506-5.654,1.161-6.846,1.257l-0.006-0.364c2.143-0.108,3.606-0.479,4.907-0.787
				c-0.771,0.021-3.441,0.571-4.908,0.605l-0.013-7.968C122.467,237.701,122.552,237.7,122.637,237.7z"/>
			</g>
		</g>
	</g>
<g id="Ebene_2">
		<g id="layer1" transform="translate(-2296.6 -473.29)">
			<path fill="#0E4585" d="M2310.775,473.965l0.672,0.048l0.721,0.048l0.672,0.096l0.625,0.097l0.672,0.144l0.625,0.192l1.25,0.48
			l0.576,0.24l0.576,0.288l0.576,0.337l0.577,0.336l0.528,0.385l0.48,0.432l0.48,0.385l0.48,0.48l0.433,0.48l0.864,0.961
			l0.337,0.528l0.384,0.576l0.337,0.529l0.288,0.624l0.24,0.577l0.48,1.249l0.191,0.624l0.145,0.673l0.096,0.625l0.097,0.672
			l0.048,0.721l0.049,0.673l-0.049,0.673l-0.048,0.721l-0.097,0.673l-0.096,0.624l-0.145,0.673l-0.191,0.625l-0.24,0.624
			l-0.24,0.625l-0.24,0.576l-0.288,0.625l-0.337,0.528l-0.384,0.576l-0.337,0.528l-1.297,1.441l-0.48,0.48l-0.48,0.385l-0.48,0.433
			l-0.528,0.384l-0.577,0.337l-0.576,0.336l-0.576,0.288l-0.576,0.24l-1.25,0.48l-0.625,0.192l-0.672,0.145l-0.625,0.096
			l-0.672,0.096l-0.721,0.048l-0.672,0.049l-0.673-0.049l-0.721-0.048l-0.672-0.096l-0.625-0.096l-0.673-0.145l-0.625-0.192
			l-1.249-0.48l-0.577-0.24l-0.625-0.288l-0.529-0.336l-0.576-0.337l-0.529-0.384l-0.48-0.433l-0.48-0.385l-0.96-0.961l-0.385-0.48
			l-0.432-0.48l-0.384-0.528l-0.336-0.576l-0.336-0.528l-0.288-0.625l-0.24-0.576l-0.24-0.625l-0.24-0.624l-0.192-0.625
			l-0.144-0.673l-0.096-0.624l-0.096-0.673l-0.048-0.721l-0.048-0.673l0.048-0.673l0.048-0.721l0.096-0.672l0.096-0.625l0.144-0.673
			l0.192-0.624l0.24-0.625l0.24-0.624l0.24-0.577l0.288-0.624l0.336-0.529l0.336-0.576l0.384-0.528l0.432-0.48l0.385-0.48l0.48-0.48
			l0.48-0.48l0.48-0.385l0.48-0.432l0.529-0.385l0.576-0.336l0.529-0.337l0.625-0.288l0.577-0.24l1.249-0.48l0.625-0.192
			l0.673-0.144l0.625-0.097l0.672-0.096l0.721-0.048L2310.775,473.965"/>
			<path fill="#FFFFFF" d="M2306.403,490.973h-0.433v2.113h0.529l-0.529,5.91h8.216l-0.48-5.958h0.24v-2.065h-0.24v-0.48h0.721
			l0.48-2.402h-0.145v-0.145l0.049-0.096v-0.097l0.047-0.144v-0.097l0.049-0.096h0.096l0.145-0.048l0.096-0.097l0.096-0.096
			l0.097-0.145l0.097-0.144l0.047-0.145v-0.144l-0.287-1.298v-0.096l-0.049-0.048l0.192-0.24v-0.049h0.048v-0.048l0.049-0.048
			v-0.192l-0.049-0.048h-0.145l-0.047,0.048l-0.049,0.048h-0.048l-0.24,0.24h-0.048l-0.049-0.048l-0.096,0.048h-0.096l-0.096,0.049
			l-0.049,0.048l-0.048,0.096l-0.048,0.048l-0.049,0.097v0.096l-0.287,1.298v0.096l0.047,0.096v0.145l0.049,0.096l0.048,0.049
			l0.097,0.096l0.047,0.096l0.097,0.049l-0.192,0.769h-0.191v-0.673l-0.049-0.433l-0.048-0.433l-0.144-0.384l-0.289-0.673
			l-0.191-0.336l-0.24-0.24l-0.24-0.24l-0.289-0.24l-0.288-0.192l-0.288-0.145l-0.336-0.144l-0.336-0.097l-0.336-0.096l-0.336-0.048
			l-0.384-0.049h-0.384l-0.384,0.049l-0.385,0.048l-0.384,0.096l-0.384,0.145l-0.336,0.144l-0.384,0.192l-0.288,0.24l-0.289,0.24
			l-0.288,0.288l-0.24,0.289l-0.192,0.336l-0.192,0.385l-0.096,0.384l-0.096,0.433v0.48L2306.403,490.973"/>
			<path fill="#0E4585" d="M2306.835,490.973h0.48l-0.384-3.651v-0.577l0.048-0.24l0.096-0.24l0.192-0.433l0.288-0.384l0.336-0.337
			l0.336-0.24l0.384-0.191l0.433-0.192l0.432-0.097l0.384-0.096l0.384-0.048l0.336-0.048h0.817l-0.192-0.049h-0.144l-0.144-0.048
			l-0.144-0.048h-0.336l-0.144-0.048h-0.384l-0.336,0.048l-0.336,0.048l-0.672,0.192l-0.336,0.145l-0.336,0.191l-0.288,0.192
			l-0.24,0.24l-0.24,0.24l-0.24,0.288l-0.144,0.337l-0.289,0.673l-0.048,0.432l-0.048,0.385L2306.835,490.973"/>
			<path fill="#0E4585" d="M2308.325,491.02h-0.24l-0.336-3.796v-0.528l0.096-0.24l0.096-0.24l0.096-0.192l0.144-0.192l0.192-0.191
			l0.192-0.192l0.48-0.24l0.48-0.24l0.576-0.145l0.577-0.048l0.288,0.048h0.289l0.24,0.048l0.577,0.192l0.239,0.145l0.241,0.192
			l0.191,0.144l0.192,0.24l0.192,0.24l0.288,0.577l0.096,0.384l0.048,0.337v0.864l-0.432,2.787h-0.385h0.048h-0.48l0.817-3.508
			v-0.384l-0.049-0.385l-0.144-0.288l-0.24-0.288l-0.24-0.24l-0.337-0.192l-0.336-0.145l-0.336-0.096l-0.384-0.048h-0.384
			l-0.336,0.096l-0.336,0.096l-0.288,0.192l-0.24,0.24l-0.192,0.288l-0.145,0.385L2308.325,491.02"/>
			<path fill="#0E4585" d="M2310.15,498.563h-2.931l2.258-11.675l0.096-0.337l0.144-0.24l0.24-0.191l0.192-0.192l0.288-0.097
			l0.288-0.048l0.289-0.048l0.288,0.048l0.289,0.048l0.288,0.097l0.24,0.192l0.24,0.191l0.193,0.192l0.096,0.288l0.096,0.289v0.384
			L2310.15,498.563"/>
			<path fill="#0E4585" d="M2311.784,493.038l1.537,0.048l0.433,5.525h-7.351l0.432-5.525l1.057,0.048l-1.057,5.478h3.651
			L2311.784,493.038"/>
			<path fill="#FFFFFF" d="M2307.652,479.826h-1.682v-0.337h0.913l0.048-0.048h0.096l0.096-0.096l0.048-0.049v-0.048l0.048-0.096
			l0.048-0.048l0.048-0.337l0.048-0.336l0.096-0.288l0.096-0.288l0.145-0.24l0.144-0.192l0.192-0.24l0.192-0.145l0.24-0.192
			l0.192-0.096l0.24-0.145l0.24-0.096l0.529-0.096l0.528-0.049l0.528,0.049l0.48,0.144l0.24,0.097l0.241,0.144l0.191,0.145
			l0.24,0.192l0.145,0.191l0.192,0.192l0.144,0.288l0.097,0.24l0.144,0.337l0.097,0.673v0.384l0.288,0.096v0.289h-0.625l0.049,0.096
			v0.192l0.048,0.096v0.24l-0.048,0.24v0.288l-0.096,0.24l-0.049,0.289l-0.24,0.432l-0.336,0.385l-0.192,0.192l-0.384,0.288
			l-0.24,0.145l-0.24,0.048l-0.24,0.096l-0.24,0.048h-0.529l-0.24-0.048l-0.24-0.096l-0.24-0.048l-0.24-0.145l-0.192-0.145
			l-0.192-0.144l-0.192-0.192l-0.145-0.192l-0.144-0.192l-0.144-0.24l-0.096-0.191l-0.096-0.289l-0.048-0.24l-0.048-0.288
			l-0.048-0.24l0.048-0.096v-0.433L2307.652,479.826"/>
			<path fill="#0E4585" d="M2310.294,476.751l0.48,0.096l0.384,0.145l0.336,0.192l0.288,0.24l0.289,0.288l0.191,0.336l0.145,0.433
			l0.096,0.433l0.049,0.048v0.528h-1.586l-0.865-0.048h-2.546l0.048-0.096v-0.097l0.048-0.096v-0.24l0.048-0.096v-0.192l0.192-0.433
			l0.192-0.385l0.288-0.336l0.673-0.48l0.384-0.145l0.432-0.048L2310.294,476.751"/>
			<path fill="#0E4585" d="M2308.036,479.97h4.18l0.048,0.048v0.24l0.048,0.049v0.24l-0.048,0.432l-0.145,0.433l-0.191,0.337
			l-0.24,0.336l-0.336,0.288l-0.385,0.192l-0.384,0.145l-0.432,0.048l-0.48-0.048l-0.384-0.145l-0.385-0.192l-0.288-0.288
			l-0.288-0.336l-0.192-0.337l-0.144-0.433l-0.048-0.432v-0.24l0.048-0.049v-0.24L2308.036,479.97"/>
			<path fill="#FFFFFF" d="M2314.811,475.55l0.432-0.576v-0.049h0.096v-0.048h0.049l0.048,0.048h0.048l0.049,0.049v0.048h0.047v0.144
			l-0.047,0.049l-0.434,0.576l-0.047,0.048h-0.193l-0.047-0.048v-0.048h-0.049v-0.192H2314.811"/>
			<path fill="#FFFFFF" d="M2314.811,476.415l0.432-0.577l0.049-0.048h0.191l0.049,0.048v0.048l0.047,0.049v0.144h-0.047
			l-0.434,0.577v0.048h-0.096v0.048h-0.096l-0.049-0.048l-0.047-0.048l-0.049-0.049v-0.144L2314.811,476.415"/>
			<path fill="#FFFFFF" d="M2314.811,477.279l0.432-0.576l0.049-0.048h0.191v0.048h0.049v0.048l0.047,0.048v0.145l-0.047,0.048
			l-0.434,0.528v0.048h-0.047v0.049h-0.193v-0.049l-0.047-0.048l-0.049-0.048v-0.145L2314.811,477.279"/>
			<path fill="#FFFFFF" d="M2314.811,478.145l0.432-0.528v-0.049h0.049l0.047-0.048h0.097l0.097,0.097l0.047,0.048v0.144
			l-0.047,0.049l-0.434,0.576l-0.047,0.048h-0.193v-0.048h-0.047v-0.048l-0.049-0.048v-0.145L2314.811,478.145"/>
			<path fill="#FFFFFF" d="M2314.811,479.058l0.432-0.577v-0.048h0.096v-0.048h0.049l0.048,0.048h0.048l0.049,0.048v0.048h0.047
			v0.145l-0.047,0.048l-0.434,0.576l-0.047,0.049h-0.193l-0.047-0.049v-0.048h-0.049v-0.191H2314.811"/>
			<path fill="#FFFFFF" d="M2314.811,479.922l0.432-0.576l0.049-0.049h0.191v0.049h0.049v0.048l0.047,0.048v0.145h-0.047
			l-0.434,0.576v0.048h-0.047l-0.049,0.048h-0.096l-0.145-0.144v-0.145L2314.811,479.922"/>
			<path fill="#FFFFFF" d="M2314.811,480.787l0.432-0.529v-0.048l0.049-0.048h0.191v0.048h0.049v0.048l0.047,0.049v0.144
			l-0.047,0.048l-0.434,0.529v0.048h-0.047v0.048h-0.145l-0.049-0.048l-0.047-0.048l-0.049-0.049v-0.144L2314.811,480.787"/>
			<path fill="#FFFFFF" d="M2314.811,481.699l0.432-0.576v-0.048h0.049l0.047-0.048h0.097l0.048,0.048l0.049,0.048l0.047,0.048v0.145
			l-0.047,0.048l-0.434,0.576l-0.047,0.049h-0.193v-0.049h-0.047v-0.048l-0.049-0.048v-0.145H2314.811"/>
			<path fill="#FFFFFF" d="M2314.811,482.564l0.432-0.576l0.049-0.049h0.191l0.049,0.049v0.048h0.047v0.192h-0.047l-0.434,0.576
			v0.048h-0.096l-0.048,0.048l-0.048-0.048h-0.049l-0.047-0.048v-0.048h-0.049v-0.145L2314.811,482.564"/>
			<path fill="#FFFFFF" d="M2314.811,483.43l0.432-0.577l0.049-0.048h0.191v0.048h0.049v0.048l0.047,0.049v0.144l-0.047,0.048
			l-0.434,0.528v0.049h-0.047l-0.049,0.048h-0.096l-0.145-0.145v-0.144L2314.811,483.43"/>
			<path fill="#FFFFFF" d="M2314.811,484.294l0.432-0.528v-0.048h0.049l0.047-0.049h0.145v0.049l0.096,0.096v0.145l-0.047,0.048
			l-0.434,0.528v0.048h-0.047l-0.049,0.048h-0.145v-0.048h-0.047v-0.048l-0.049-0.048v-0.145L2314.811,484.294"/>
			<path fill="#FFFFFF" d="M2314.811,484.294l0.432-0.528v-0.048h0.049l0.047-0.049h0.145v0.049l0.096,0.096v0.145l-0.047,0.048
			l-0.434,0.528v0.048h-0.047l-0.049,0.048h-0.145v-0.048h-0.047v-0.048l-0.049-0.048v-0.145L2314.811,484.294"/>
			<path fill="#FFFFFF" d="M2314.811,483.43l0.432-0.577l0.049-0.048h0.191v0.048h0.049v0.048l0.047,0.049v0.144l-0.047,0.048
			l-0.434,0.528v0.049h-0.047l-0.049,0.048h-0.096l-0.145-0.145v-0.144L2314.811,483.43"/>
			<path fill="#FFFFFF" d="M2314.811,482.564l0.432-0.576l0.049-0.049h0.191l0.049,0.049v0.048h0.047v0.192h-0.047l-0.434,0.576
			v0.048h-0.096l-0.048,0.048l-0.048-0.048h-0.049l-0.047-0.048v-0.048h-0.049v-0.145L2314.811,482.564"/>
			<path fill="#FFFFFF" d="M2314.811,481.699l0.432-0.576v-0.048h0.049l0.047-0.048h0.097l0.048,0.048l0.049,0.048l0.047,0.048v0.145
			l-0.047,0.048l-0.434,0.576l-0.047,0.049h-0.193v-0.049h-0.047v-0.048l-0.049-0.048v-0.145H2314.811"/>
			<path fill="#FFFFFF" d="M2314.811,480.787l0.432-0.529v-0.048l0.049-0.048h0.191v0.048h0.049v0.048l0.047,0.049v0.144
			l-0.047,0.048l-0.434,0.529v0.048h-0.047v0.048h-0.145l-0.049-0.048l-0.047-0.048l-0.049-0.049v-0.144L2314.811,480.787"/>
			<path fill="#FFFFFF" d="M2314.811,479.922l0.432-0.576l0.049-0.049h0.191v0.049h0.049v0.048l0.047,0.048v0.145h-0.047
			l-0.434,0.576v0.048h-0.047l-0.049,0.048h-0.096l-0.145-0.144v-0.145L2314.811,479.922"/>
			<path fill="#FFFFFF" d="M2314.811,479.058l0.432-0.577v-0.048h0.096v-0.048h0.049l0.048,0.048h0.048l0.049,0.048v0.048h0.047
			v0.145l-0.047,0.048l-0.434,0.576l-0.047,0.049h-0.193l-0.047-0.049v-0.048h-0.049v-0.191H2314.811"/>
			<path fill="#FFFFFF" d="M2314.811,478.145l0.432-0.528v-0.049h0.049l0.047-0.048h0.097l0.097,0.097l0.047,0.048v0.144
			l-0.047,0.049l-0.434,0.576l-0.047,0.048h-0.193v-0.048h-0.047v-0.048l-0.049-0.048v-0.145L2314.811,478.145"/>
			<path fill="#FFFFFF" d="M2314.811,477.279l0.432-0.576l0.049-0.048h0.191v0.048h0.049v0.048l0.047,0.048v0.145l-0.047,0.048
			l-0.434,0.528v0.048h-0.047v0.049h-0.193v-0.049l-0.047-0.048l-0.049-0.048v-0.145L2314.811,477.279"/>
			<path fill="#FFFFFF" d="M2314.811,476.415l0.432-0.577l0.049-0.048h0.191l0.049,0.048v0.048l0.047,0.049v0.144h-0.047
			l-0.434,0.577v0.048h-0.096v0.048h-0.096l-0.049-0.048l-0.047-0.048l-0.049-0.049v-0.144L2314.811,476.415"/>
			<path fill="#FFFFFF" d="M2314.811,475.55l0.432-0.576v-0.049h0.096v-0.048h0.049l0.048,0.048h0.048l0.049,0.049v0.048h0.047v0.144
			l-0.047,0.049l-0.434,0.576l-0.047,0.048h-0.193l-0.047-0.048v-0.048h-0.049v-0.192H2314.811"/>
			<path fill="#0E4585" d="M2314.955,487.032v-0.048l-0.048-0.096v-0.048h-0.192l-0.097,0.048l-0.047,0.048v-0.048h-0.049v-0.048
			l-0.048-0.049v-0.096l-0.048-0.048v-0.048l0.24-1.105h0.096v0.048l0.049-0.048h0.096v-0.048l0.048-0.048l0.288,1.201v0.048
			l-0.048,0.048v0.096l-0.048,0.049v0.048l-0.049,0.048v0.048h-0.047l-0.049,0.048H2314.955"/>
		</g>
	</g>
</svg>
