<?xml version="1.0" encoding="utf-8"?>
<!-- Generator: Adobe Illustrator 19.0.0, SVG Export Plug-In . SVG Version: 6.00 Build 0)  -->
<svg version="1.1" id="Layer_1" xmlns="http://www.w3.org/2000/svg" xmlns:xlink="http://www.w3.org/1999/xlink" x="0px" y="0px"
	 viewBox="0 0 95.9 28.1" style="enable-background:new 0 0 95.9 28.1;" xml:space="preserve">
<style type="text/css">
	.st0{fill-rule:evenodd;clip-rule:evenodd;fill:#00205B;}
	.st1{fill:#FFFFFF;}
</style>
<g id="XMLID_1_">
	<path id="XMLID_10_" class="st0" d="M44.3,7.9c0-3.1-2-5.4-6.1-5.4c-8.3,0-8.3,0-8.3,0c0,16.1,0,16.1,0,16.1c3.9,0,3.9,0,3.9,0
		c0-12.6,0-12.6,0-12.6c4.4,0,4.4,0,4.4,0c1.6,0,2.2,0.9,2.2,2c0,1.1-0.6,2-2.3,2c-3.8,0-3.8,0-3.8,0c5.4,8.6,5.4,8.6,5.4,8.6
		c4.5,0,4.5,0,4.5,0l-3.7-5.7C42.9,12.2,44.3,10.7,44.3,7.9"/>
	<polygon id="XMLID_9_" class="st0" points="23.4,2.5 27.3,2.5 27.3,18.5 23.4,18.5 23.4,2.5 	"/>
	<polygon id="XMLID_8_" class="st0" points="10.8,2.5 2.6,18.5 7,18.5 8.3,15.9 14.9,15.9 13.3,12.5 10,12.5 12.4,7.5 12.5,7.5 
		17.9,18.5 22.4,18.5 14.2,2.5 10.8,2.5 10.8,2.5 	"/>
	<path id="XMLID_4_" class="st0" d="M58.7,10.2c1.2-0.7,1.9-1.8,1.9-3.4c0-2.6-1.9-4.4-5.1-4.4c-9.2,0-9.2,0-9.2,0
		c0,16.1,0,16.1,0,16.1c9.5,0,9.5,0,9.5,0c3.3,0,5.5-1.8,5.5-4.5C61.3,12.2,60.3,10.8,58.7,10.2 M50.2,5.9c5.3,0,5.3,0,5.3,0
		c0.8,0,1.3,0.6,1.3,1.4c0,0.8-0.6,1.4-1.4,1.4c-5.2,0-5.2,0-5.2,0V5.9L50.2,5.9L50.2,5.9z M55.5,15.2c-5.3,0-5.3,0-5.3,0
		c0-3.3,0-3.3,0-3.3c5.3,0,5.3,0,5.3,0c1,0,1.7,0.6,1.7,1.6C57.2,14.5,56.5,15.2,55.5,15.2"/>
	<path id="XMLID_3_" class="st0" d="M73.7,11.5c0,2.5-1.1,3.8-3.3,3.8c-2.2,0-3.3-1.3-3.3-3.8c0-9,0-9,0-9c-4,0-4,0-4,0
		c0,8.7,0,8.7,0,8.7c0,5,2.6,7.7,7.3,7.7c4.8,0,7.4-2.8,7.4-7.7c0-8.7,0-8.7,0-8.7c-4,0-4,0-4,0V11.5L73.7,11.5L73.7,11.5z"/>
	<path id="XMLID_2_" class="st0" d="M88.2,8.9c-3.7-0.9-4.6-1-4.6-2.1c0-0.9,0.9-1.2,2.5-1.2c2.1,0,4.3,0.5,5.6,1.3
		c1.2-3.3,1.2-3.3,1.2-3.3c-1.6-0.9-4-1.5-6.7-1.5c-4.2,0-6.5,2.1-6.5,4.8c0,3,1.8,4.2,5.7,5.1c3.1,0.7,3.8,1.1,3.8,2
		c0,0.9-0.9,1.4-2.6,1.4c-2.5,0-4.6-0.6-6.4-1.6c-1.2,3.4-1.2,3.4-1.2,3.4c1.9,1.1,4.8,1.7,7.7,1.7c4,0,6.5-1.9,6.5-5.1
		C93.3,11.4,91.6,9.7,88.2,8.9"/>
</g>
<g id="XMLID_103_">
	<path id="XMLID_104_" class="st1" d="M42.6,25.1V21h1.2c1.5,0,2.3,0.7,2.3,2c0,0.6-0.2,1.2-0.6,1.6c-0.4,0.4-1,0.6-1.7,0.6H42.6z
		 M43.3,21.6v3h0.6c0.5,0,0.9-0.1,1.1-0.4c0.3-0.3,0.4-0.6,0.4-1.1c0-1-0.5-1.5-1.5-1.5H43.3z"/>
	<path id="XMLID_107_" class="st1" d="M49.4,23.8h-2c0,0.3,0.1,0.5,0.3,0.6c0.2,0.1,0.4,0.2,0.7,0.2c0.3,0,0.6-0.1,0.9-0.3v0.5
		c-0.3,0.2-0.6,0.3-1.1,0.3c-0.4,0-0.8-0.1-1-0.4c-0.2-0.3-0.4-0.6-0.4-1.1c0-0.5,0.1-0.8,0.4-1.1c0.3-0.3,0.6-0.4,1-0.4
		c0.4,0,0.7,0.1,0.9,0.4c0.2,0.3,0.3,0.6,0.3,1.1V23.8z M48.7,23.4c0-0.2-0.1-0.4-0.2-0.6c-0.1-0.1-0.3-0.2-0.5-0.2
		c-0.2,0-0.4,0.1-0.5,0.2c-0.1,0.1-0.2,0.3-0.2,0.6H48.7z"/>
	<path id="XMLID_110_" class="st1" d="M51.7,21.3c-0.1-0.1-0.2-0.1-0.3-0.1c-0.3,0-0.5,0.2-0.5,0.6v0.4h0.7v0.5h-0.7v2.4h-0.7v-2.4
		h-0.5v-0.5h0.5v-0.5c0-0.3,0.1-0.6,0.3-0.7s0.5-0.3,0.8-0.3c0.2,0,0.3,0,0.4,0.1V21.3z"/>
	<path id="XMLID_112_" class="st1" d="M54.6,23.8h-2c0,0.3,0.1,0.5,0.3,0.6c0.2,0.1,0.4,0.2,0.7,0.2c0.3,0,0.6-0.1,0.9-0.3v0.5
		c-0.3,0.2-0.6,0.3-1.1,0.3c-0.4,0-0.8-0.1-1-0.4c-0.2-0.3-0.4-0.6-0.4-1.1c0-0.5,0.1-0.8,0.4-1.1c0.3-0.3,0.6-0.4,1-0.4
		c0.4,0,0.7,0.1,0.9,0.4c0.2,0.3,0.3,0.6,0.3,1.1V23.8z M53.9,23.4c0-0.2-0.1-0.4-0.2-0.6c-0.1-0.1-0.3-0.2-0.5-0.2
		c-0.2,0-0.4,0.1-0.5,0.2c-0.1,0.1-0.2,0.3-0.2,0.6H53.9z"/>
	<path id="XMLID_115_" class="st1" d="M57.9,25.1h-0.7v-1.7c0-0.6-0.2-0.8-0.6-0.8c-0.2,0-0.4,0.1-0.5,0.2c-0.1,0.2-0.2,0.3-0.2,0.6
		v1.7h-0.7v-3h0.7v0.5h0c0.2-0.4,0.5-0.6,1-0.6c0.3,0,0.6,0.1,0.7,0.3c0.2,0.2,0.3,0.5,0.3,0.9V25.1z"/>
	<path id="XMLID_117_" class="st1" d="M60.8,25c-0.2,0.1-0.5,0.2-0.8,0.2c-0.4,0-0.8-0.1-1.1-0.4s-0.4-0.6-0.4-1.1
		c0-0.5,0.1-0.9,0.4-1.2c0.3-0.3,0.7-0.4,1.2-0.4c0.3,0,0.5,0,0.7,0.1v0.6c-0.2-0.2-0.4-0.2-0.7-0.2c-0.3,0-0.5,0.1-0.7,0.3
		c-0.2,0.2-0.3,0.4-0.3,0.8c0,0.3,0.1,0.6,0.3,0.7c0.2,0.2,0.4,0.3,0.7,0.3c0.2,0,0.5-0.1,0.7-0.3V25z"/>
	<path id="XMLID_119_" class="st1" d="M64,23.8h-2c0,0.3,0.1,0.5,0.3,0.6c0.2,0.1,0.4,0.2,0.7,0.2c0.3,0,0.6-0.1,0.9-0.3v0.5
		c-0.3,0.2-0.6,0.3-1.1,0.3c-0.4,0-0.8-0.1-1-0.4c-0.2-0.3-0.4-0.6-0.4-1.1c0-0.5,0.1-0.8,0.4-1.1c0.3-0.3,0.6-0.4,1-0.4
		c0.4,0,0.7,0.1,0.9,0.4c0.2,0.3,0.3,0.6,0.3,1.1V23.8z M63.4,23.4c0-0.2-0.1-0.4-0.2-0.6c-0.1-0.1-0.3-0.2-0.5-0.2
		c-0.2,0-0.4,0.1-0.5,0.2c-0.1,0.1-0.2,0.3-0.2,0.6H63.4z"/>
	<path id="XMLID_122_" class="st1" d="M68.6,25.1h-0.7v-0.5h0c-0.2,0.4-0.5,0.5-0.9,0.5c-0.3,0-0.5-0.1-0.7-0.2
		c-0.2-0.2-0.2-0.4-0.2-0.6c0-0.6,0.3-0.9,1-1l0.9-0.1c0-0.4-0.2-0.6-0.6-0.6c-0.4,0-0.7,0.1-1,0.4v-0.6c0.3-0.2,0.7-0.3,1.1-0.3
		c0.8,0,1.1,0.4,1.1,1.1V25.1z M67.9,23.7l-0.6,0.1c-0.2,0-0.3,0.1-0.4,0.1c-0.1,0.1-0.1,0.2-0.1,0.4c0,0.1,0,0.2,0.1,0.3
		c0.1,0.1,0.2,0.1,0.4,0.1c0.2,0,0.4-0.1,0.5-0.2c0.1-0.1,0.2-0.3,0.2-0.5V23.7z"/>
	<path id="XMLID_125_" class="st1" d="M72,25.1h-0.7v-1.7c0-0.6-0.2-0.8-0.6-0.8c-0.2,0-0.4,0.1-0.5,0.2c-0.1,0.2-0.2,0.3-0.2,0.6
		v1.7h-0.7v-3h0.7v0.5h0c0.2-0.4,0.5-0.6,1-0.6c0.3,0,0.6,0.1,0.7,0.3c0.2,0.2,0.3,0.5,0.3,0.9V25.1z"/>
	<path id="XMLID_127_" class="st1" d="M75.6,25.1h-0.7v-0.5h0c-0.2,0.4-0.6,0.6-1,0.6c-0.4,0-0.7-0.1-0.9-0.4
		c-0.2-0.3-0.3-0.6-0.3-1.1c0-0.5,0.1-0.9,0.4-1.2c0.2-0.3,0.6-0.4,1-0.4c0.4,0,0.7,0.2,0.9,0.5h0v-1.8h0.7V25.1z M74.9,23.8v-0.4
		c0-0.2-0.1-0.4-0.2-0.5c-0.1-0.1-0.3-0.2-0.5-0.2c-0.3,0-0.5,0.1-0.6,0.3c-0.1,0.2-0.2,0.4-0.2,0.8c0,0.3,0.1,0.5,0.2,0.7
		c0.1,0.2,0.3,0.3,0.6,0.3c0.2,0,0.4-0.1,0.6-0.3C74.8,24.2,74.9,24,74.9,23.8z"/>
	<path id="XMLID_130_" class="st1" d="M78,25v-0.7c0.1,0.1,0.1,0.1,0.2,0.2s0.2,0.1,0.3,0.1c0.1,0,0.2,0.1,0.3,0.1
		c0.1,0,0.2,0,0.3,0c0.3,0,0.5,0,0.6-0.1c0.1-0.1,0.2-0.2,0.2-0.4c0-0.1,0-0.2-0.1-0.3c0-0.1-0.1-0.1-0.2-0.2
		c-0.1-0.1-0.2-0.1-0.3-0.2c-0.1-0.1-0.2-0.1-0.4-0.2c-0.1-0.1-0.3-0.2-0.4-0.2c-0.1-0.1-0.2-0.2-0.3-0.3c-0.1-0.1-0.2-0.2-0.2-0.3
		C78,22.3,78,22.2,78,22c0-0.2,0-0.4,0.1-0.5s0.2-0.3,0.3-0.4c0.1-0.1,0.3-0.2,0.5-0.2c0.2,0,0.4-0.1,0.6-0.1c0.4,0,0.8,0,1,0.1v0.7
		c-0.2-0.2-0.5-0.3-0.9-0.3c-0.1,0-0.2,0-0.3,0c-0.1,0-0.2,0.1-0.3,0.1c-0.1,0-0.1,0.1-0.2,0.2c-0.1,0.1-0.1,0.2-0.1,0.3
		c0,0.1,0,0.2,0.1,0.2c0,0.1,0.1,0.1,0.2,0.2c0.1,0.1,0.2,0.1,0.3,0.2c0.1,0.1,0.2,0.1,0.4,0.2c0.1,0.1,0.3,0.2,0.4,0.2
		c0.1,0.1,0.2,0.2,0.3,0.3c0.1,0.1,0.2,0.2,0.2,0.3c0.1,0.1,0.1,0.3,0.1,0.4c0,0.2,0,0.4-0.1,0.5c-0.1,0.1-0.2,0.3-0.3,0.4
		c-0.1,0.1-0.3,0.2-0.5,0.2c-0.2,0-0.4,0.1-0.6,0.1c-0.1,0-0.2,0-0.3,0c-0.1,0-0.2,0-0.3,0c-0.1,0-0.2,0-0.3-0.1
		C78.1,25,78,25,78,25z"/>
	<path id="XMLID_132_" class="st1" d="M82,24.7L82,24.7l0,1.8h-0.7v-4.3H82v0.5h0c0.2-0.4,0.6-0.6,1-0.6c0.4,0,0.7,0.1,0.9,0.4
		c0.2,0.3,0.3,0.6,0.3,1.1c0,0.5-0.1,0.9-0.4,1.2c-0.2,0.3-0.6,0.4-1,0.4C82.5,25.2,82.2,25,82,24.7z M82,23.5v0.4
		c0,0.2,0.1,0.4,0.2,0.6c0.1,0.2,0.3,0.2,0.5,0.2c0.2,0,0.4-0.1,0.6-0.3c0.1-0.2,0.2-0.5,0.2-0.8c0-0.3-0.1-0.5-0.2-0.7
		c-0.1-0.2-0.3-0.2-0.5-0.2c-0.2,0-0.4,0.1-0.6,0.3C82.1,23.1,82,23.3,82,23.5z"/>
	<path id="XMLID_135_" class="st1" d="M87.1,25.1h-0.7v-0.5h0c-0.2,0.4-0.5,0.5-0.9,0.5c-0.3,0-0.5-0.1-0.7-0.2
		c-0.2-0.2-0.2-0.4-0.2-0.6c0-0.6,0.3-0.9,1-1l0.9-0.1c0-0.4-0.2-0.6-0.6-0.6c-0.4,0-0.7,0.1-1,0.4v-0.6c0.3-0.2,0.7-0.3,1.1-0.3
		c0.8,0,1.1,0.4,1.1,1.1V25.1z M86.5,23.7l-0.6,0.1c-0.2,0-0.3,0.1-0.4,0.1c-0.1,0.1-0.1,0.2-0.1,0.4c0,0.1,0,0.2,0.1,0.3
		c0.1,0.1,0.2,0.1,0.4,0.1c0.2,0,0.4-0.1,0.5-0.2c0.1-0.1,0.2-0.3,0.2-0.5V23.7z"/>
	<path id="XMLID_138_" class="st1" d="M90.1,25c-0.2,0.1-0.5,0.2-0.8,0.2c-0.4,0-0.8-0.1-1.1-0.4s-0.4-0.6-0.4-1.1
		c0-0.5,0.1-0.9,0.4-1.2c0.3-0.3,0.7-0.4,1.2-0.4c0.3,0,0.5,0,0.7,0.1v0.6c-0.2-0.2-0.4-0.2-0.7-0.2c-0.3,0-0.5,0.1-0.7,0.3
		c-0.2,0.2-0.3,0.4-0.3,0.8c0,0.3,0.1,0.6,0.3,0.7c0.2,0.2,0.4,0.3,0.7,0.3c0.2,0,0.5-0.1,0.7-0.3V25z"/>
	<path id="XMLID_140_" class="st1" d="M93.3,23.8h-2c0,0.3,0.1,0.5,0.3,0.6c0.2,0.1,0.4,0.2,0.7,0.2c0.3,0,0.6-0.1,0.9-0.3v0.5
		c-0.3,0.2-0.6,0.3-1.1,0.3c-0.4,0-0.8-0.1-1-0.4c-0.2-0.3-0.4-0.6-0.4-1.1c0-0.5,0.1-0.8,0.4-1.1c0.3-0.3,0.6-0.4,1-0.4
		c0.4,0,0.7,0.1,0.9,0.4c0.2,0.3,0.3,0.6,0.3,1.1V23.8z M92.6,23.4c0-0.2-0.1-0.4-0.2-0.6c-0.1-0.1-0.3-0.2-0.5-0.2
		c-0.2,0-0.4,0.1-0.5,0.2c-0.1,0.1-0.2,0.3-0.2,0.6H92.6z"/>
</g>
</svg>
