<?xml version="1.0" encoding="utf-8"?>
<!-- Generator: Adobe Illustrator 19.0.0, SVG Export Plug-In . SVG Version: 6.00 Build 0)  -->
<svg version="1.1" id="Layer_1" xmlns="http://www.w3.org/2000/svg" xmlns:xlink="http://www.w3.org/1999/xlink" x="0px" y="0px"
	 viewBox="0 0 95.9 19.7" style="enable-background:new 0 0 95.9 19.7;" xml:space="preserve">
<style type="text/css">
	.st0{fill-rule:evenodd;clip-rule:evenodd;fill:#00205B;}
</style>
<g id="XMLID_1_">
	<path id="XMLID_10_" class="st0" d="M44.3,7.2c0-3.1-2-5.4-6.1-5.4c-8.3,0-8.3,0-8.3,0c0,16.1,0,16.1,0,16.1c3.9,0,3.9,0,3.9,0
		c0-12.6,0-12.6,0-12.6c4.4,0,4.4,0,4.4,0c1.6,0,2.2,0.9,2.2,2c0,1.1-0.6,2-2.3,2c-3.8,0-3.8,0-3.8,0c5.4,8.6,5.4,8.6,5.4,8.6
		c4.5,0,4.5,0,4.5,0l-3.7-5.7C42.9,11.5,44.3,10,44.3,7.2"/>
	<polygon id="XMLID_9_" class="st0" points="23.4,1.8 27.3,1.8 27.3,17.8 23.4,17.8 23.4,1.8 	"/>
	<polygon id="XMLID_8_" class="st0" points="10.8,1.8 2.6,17.8 7,17.8 8.3,15.2 14.9,15.2 13.3,11.8 10,11.8 12.4,6.8 12.5,6.8 
		17.9,17.8 22.4,17.8 14.2,1.8 10.8,1.8 10.8,1.8 	"/>
	<path id="XMLID_4_" class="st0" d="M58.7,9.5c1.2-0.7,1.9-1.8,1.9-3.4c0-2.6-1.9-4.4-5.1-4.4c-9.2,0-9.2,0-9.2,0
		c0,16.1,0,16.1,0,16.1c9.5,0,9.5,0,9.5,0c3.3,0,5.5-1.8,5.5-4.5C61.3,11.5,60.3,10.1,58.7,9.5 M50.2,5.2c5.3,0,5.3,0,5.3,0
		c0.8,0,1.3,0.6,1.3,1.4c0,0.8-0.6,1.4-1.4,1.4c-5.2,0-5.2,0-5.2,0V5.2L50.2,5.2L50.2,5.2z M55.5,14.5c-5.3,0-5.3,0-5.3,0
		c0-3.3,0-3.3,0-3.3c5.3,0,5.3,0,5.3,0c1,0,1.7,0.6,1.7,1.6C57.2,13.8,56.5,14.5,55.5,14.5"/>
	<path id="XMLID_3_" class="st0" d="M73.7,10.8c0,2.5-1.1,3.8-3.3,3.8c-2.2,0-3.3-1.3-3.3-3.8c0-9,0-9,0-9c-4,0-4,0-4,0
		c0,8.7,0,8.7,0,8.7c0,5,2.6,7.7,7.3,7.7c4.8,0,7.4-2.8,7.4-7.7c0-8.7,0-8.7,0-8.7c-4,0-4,0-4,0V10.8L73.7,10.8L73.7,10.8z"/>
	<path id="XMLID_2_" class="st0" d="M88.2,8.2c-3.7-0.9-4.6-1-4.6-2.1c0-0.9,0.9-1.2,2.5-1.2c2.1,0,4.3,0.5,5.6,1.3
		c1.2-3.3,1.2-3.3,1.2-3.3c-1.6-0.9-4-1.5-6.7-1.5c-4.2,0-6.5,2.1-6.5,4.8c0,3,1.8,4.2,5.7,5.1c3.1,0.7,3.8,1.1,3.8,2
		c0,0.9-0.9,1.4-2.6,1.4c-2.5,0-4.6-0.6-6.4-1.6c-1.2,3.4-1.2,3.4-1.2,3.4c1.9,1.1,4.8,1.7,7.7,1.7c4,0,6.5-1.9,6.5-5.1
		C93.3,10.7,91.6,9,88.2,8.2"/>
</g>
</svg>
