<?xml version="1.0" encoding="utf-8"?>
<!-- Generator: Adobe Illustrator 24.0.0, SVG Export Plug-In . SVG Version: 6.00 Build 0)  -->
<svg version="1.1" id="Layer_1" xmlns="http://www.w3.org/2000/svg" xmlns:xlink="http://www.w3.org/1999/xlink" x="0px" y="0px"
	 viewBox="0 0 1307.52 84.77" style="enable-background:new 0 0 1307.52 84.77;" xml:space="preserve">
<style type="text/css">
	.st0{fill:#FFD458;}
	.st1{fill:#EAE8E4;}
</style>
<path class="st0" d="M1296,84.8H12c-6.6,0-12-5.4-12-12V12C0,5.4,5.4,0,12,0h1284c6.6,0,12,5.4,12,12v60.8
	C1308,79.4,1302.6,84.8,1296,84.8z"/>
<path class="st1" d="M1296,84.8H12c-6.6,0-12-5.4-12-12V12C0,5.4,5.4,0,12,0h1284c6.6,0,12,5.4,12,12v60.8
	C1308,79.4,1302.6,84.8,1296,84.8z"/>
</svg>
