<?xml version="1.0" encoding="utf-8"?>
<!-- Generator: Adobe Illustrator 19.0.0, SVG Export Plug-In . SVG Version: 6.00 Build 0)  -->
<svg version="1.1" xmlns="http://www.w3.org/2000/svg" xmlns:xlink="http://www.w3.org/1999/xlink" x="0px" y="0px" viewBox="-286 409.2 22.7 22.7" style="enable-background:new -286 409.2 22.7 22.7;" xml:space="preserve" height="13mm" width="13mm">
<style type="text/css">
	.st0{display:none;}
	.st1{display:inline;}
	.st2{clip-path:url(#XMLID_3_);fill:#FFFFFF;}
	.st3{clip-path:url(#XMLID_3_);fill:#0E4585;}
	.st4{clip-path:url(#SVGID_2_);}
	.st5{clip-path:url(#SVGID_4_);fill-rule:evenodd;clip-rule:evenodd;fill:#F3E600;}
	.st6{clip-path:url(#SVGID_4_);}
	.st7{clip-path:url(#SVGID_6_);fill-rule:evenodd;clip-rule:evenodd;fill:#010202;}
	.st8{clip-path:url(#SVGID_6_);}
	.st9{clip-path:url(#SVGID_8_);fill-rule:evenodd;clip-rule:evenodd;fill:#EFE52C;}
	.st10{clip-path:url(#SVGID_8_);}
	.st11{clip-path:url(#SVGID_10_);fill-rule:evenodd;clip-rule:evenodd;fill:#010202;}
	.st12{clip-path:url(#SVGID_10_);fill:none;stroke:#010202;stroke-width:0.333;stroke-linecap:square;stroke-miterlimit:8;}
	.st13{clip-path:url(#SVGID_10_);}
	.st14{clip-path:url(#SVGID_12_);fill-rule:evenodd;clip-rule:evenodd;fill:#010202;}
	.st15{clip-path:url(#SVGID_12_);fill:none;stroke:#010202;stroke-width:0.333;stroke-linecap:square;stroke-miterlimit:8;}
	.st16{clip-path:url(#SVGID_12_);}
	.st17{clip-path:url(#SVGID_14_);fill-rule:evenodd;clip-rule:evenodd;fill:#010202;}
	.st18{clip-path:url(#SVGID_14_);fill:none;stroke:#010202;stroke-width:0.333;stroke-linecap:square;stroke-miterlimit:8;}
	.st19{clip-path:url(#SVGID_14_);}
	.st20{clip-path:url(#SVGID_16_);fill-rule:evenodd;clip-rule:evenodd;fill:#010202;}
	.st21{clip-path:url(#SVGID_16_);fill:none;stroke:#010202;stroke-width:0.333;stroke-linecap:square;stroke-miterlimit:8;}
	.st22{clip-path:url(#SVGID_16_);}
	.st23{clip-path:url(#SVGID_18_);fill-rule:evenodd;clip-rule:evenodd;fill:#010202;}
	.st24{clip-path:url(#SVGID_18_);fill:none;stroke:#010202;stroke-width:0.333;stroke-linecap:square;stroke-miterlimit:8;}
	.st25{clip-path:url(#SVGID_18_);}
	.st26{clip-path:url(#SVGID_20_);fill-rule:evenodd;clip-rule:evenodd;fill:#010202;}
	.st27{clip-path:url(#SVGID_20_);fill:none;stroke:#010202;stroke-width:0.333;stroke-linecap:square;stroke-miterlimit:8;}
	.st28{clip-path:url(#SVGID_20_);}
	.st29{clip-path:url(#SVGID_22_);fill-rule:evenodd;clip-rule:evenodd;fill:#010202;}
	.st30{clip-path:url(#SVGID_22_);fill:none;stroke:#010202;stroke-width:0.333;stroke-linecap:square;stroke-miterlimit:8;}
	.st31{clip-path:url(#SVGID_22_);}
	.st32{clip-path:url(#SVGID_24_);fill-rule:evenodd;clip-rule:evenodd;fill:#010202;}
	.st33{clip-path:url(#SVGID_24_);fill:none;stroke:#010202;stroke-width:0.333;stroke-linecap:square;stroke-miterlimit:8;}
	.st34{clip-path:url(#SVGID_24_);}
	.st35{clip-path:url(#SVGID_26_);fill-rule:evenodd;clip-rule:evenodd;fill:#010202;}
	.st36{clip-path:url(#SVGID_26_);fill:none;stroke:#010202;stroke-width:0.333;stroke-linecap:square;stroke-miterlimit:8;}
	.st37{clip-path:url(#SVGID_26_);}
	.st38{clip-path:url(#SVGID_28_);fill-rule:evenodd;clip-rule:evenodd;fill:#010202;}
	.st39{clip-path:url(#SVGID_28_);fill:none;stroke:#010202;stroke-width:0.333;stroke-linecap:square;stroke-miterlimit:8;}
	.st40{clip-path:url(#SVGID_28_);}
	.st41{clip-path:url(#SVGID_30_);fill-rule:evenodd;clip-rule:evenodd;fill:#010202;}
	.st42{clip-path:url(#SVGID_30_);fill:none;stroke:#010202;stroke-width:0.333;stroke-linecap:square;stroke-miterlimit:8;}
	.st43{clip-path:url(#SVGID_30_);}
	.st44{clip-path:url(#SVGID_32_);fill-rule:evenodd;clip-rule:evenodd;fill:#010202;}
	.st45{clip-path:url(#SVGID_32_);fill:none;stroke:#010202;stroke-width:0.333;stroke-linecap:square;stroke-miterlimit:8;}
</style>
<g id="Layer_1" class="st0">
		<g id="XMLID_293_" class="st1">
			<g>
				<g id="XMLID_44_">
					<g id="XMLID_45_">
						<defs>
							<polygon id="XMLID_46_" points="-284.2,430.2 -265.2,430.2 -265.2,411.2 -284.2,411.2 -284.2,430.2 						"/>
						</defs>
						<clipPath id="XMLID_2_">
							<use xlink:href="#XMLID_46_" style="overflow:visible;"/>
						</clipPath>
					</g>
				</g>
			</g>
			<g>
				<g id="XMLID_37_">
					<g id="XMLID_38_">
						<defs>
							<polygon id="XMLID_39_" points="-284.2,430.2 -265.2,430.2 -265.2,411.2 -284.2,411.2 -284.2,430.2 						"/>
						</defs>
						<clipPath id="XMLID_3_">
							<use xlink:href="#XMLID_39_" style="overflow:visible;"/>
						</clipPath>
						<path id="XMLID_43_" class="st2" d="M-274.7,411.2c5.2,0,9.5,4.2,9.5,9.5c0,5.2-4.2,9.5-9.5,9.5s-9.5-4.2-9.5-9.5
						C-284.2,415.4-279.9,411.2-274.7,411.2L-274.7,411.2z"/>
						<path id="XMLID_42_" class="st3" d="M-274.7,411.3c5.2,0,9.3,4.2,9.3,9.4c0,5.2-4.2,9.3-9.3,9.3c-5.2,0-9.3-4.2-9.3-9.3
						C-284,415.5-279.8,411.3-274.7,411.3L-274.7,411.3z"/>
						<path id="XMLID_41_" class="st2" d="M-273,426c0,1-0.8,1.8-1.8,1.8c-1,0-1.8-0.8-1.8-1.8c0,0,0,0,0,0c0-1,0.8-1.8,1.8-1.8
						C-273.8,424.2-273,425-273,426C-273,425.9-273,426-273,426L-273,426z"/>
						<path id="XMLID_40_" class="st2" d="M-274.7,413.6c-1,0-1.7,0.8-1.7,1.8c0.5,6.2,0.5,6.2,0.5,6.2c0.1,0.8,0.2,1.3,0.5,1.5
						c0.2,0.1,0.5,0.2,0.7,0.2s0.5-0.1,0.7-0.2c0.3-0.2,0.4-0.7,0.5-1.5c0.5-6.2,0.5-6.2,0.5-6.2
						C-273,414.4-273.8,413.6-274.7,413.6L-274.7,413.6z"/>
					</g>
				</g>
			</g>
			<g>
				<g id="XMLID_30_">
					<g id="XMLID_31_">
						<defs>
							<polygon id="XMLID_32_" points="-284.2,430.2 -265.2,430.2 -265.2,411.2 -284.2,411.2 -284.2,430.2 						"/>
						</defs>
						<clipPath id="XMLID_4_">
							<use xlink:href="#XMLID_32_" style="overflow:visible;"/>
						</clipPath>
					</g>
				</g>
			</g>
		</g>
	</g>
<g id="Layer_2">
		<g>
			<defs>
				<polygon id="SVGID_1_" points="-284.7,429.3 -263.7,429.3 -263.7,403.8 -284.7,403.8 -284.7,429.3 			"/>
			</defs>
			<clipPath id="SVGID_2_">
				<use xlink:href="#SVGID_1_" style="overflow:visible;"/>
			</clipPath>
			<g class="st4">
				<defs>
					<polygon id="SVGID_3_" points="-284.7,429.3 -263.7,429.3 -263.7,403.8 -284.7,403.8 -284.7,429.3 				"/>
				</defs>
				<clipPath id="SVGID_4_">
					<use xlink:href="#SVGID_3_" style="overflow:visible;"/>
				</clipPath>
				<path class="st5" d="M-274.3,409.5c-0.5,0-0.7,0.5-0.9,0.9c-3.1,5.9-6.3,11.7-9.3,17.6c-0.2,0.6,0.4,1.3,0.9,1.1
				c6.4,0,12.7,0,19.1,0c0.6-0.1,0.8-0.9,0.5-1.4c-3.2-6-6.3-12-9.6-18C-273.8,409.6-274.1,409.5-274.3,409.5L-274.3,409.5z"/>
				<g class="st6">
					<defs>
						<polygon id="SVGID_5_" points="-284.7,429.3 -263.7,429.3 -263.7,403.8 -284.7,403.8 -284.7,429.3 					"/>
					</defs>
					<clipPath id="SVGID_6_">
						<use xlink:href="#SVGID_5_" style="overflow:visible;"/>
					</clipPath>
					<path class="st7" d="M-264.3,428c-9.6-17.7-9.6-17.7-9.6-17.7c-0.1-0.2-0.3-0.3-0.5-0.3s-0.4,0.1-0.5,0.3
					c-9.6,17.7-9.6,17.7-9.6,17.7c-0.1,0.2-0.1,0.4,0,0.6c0.1,0.2,0.3,0.3,0.5,0.3c19.2,0,19.2,0,19.2,0c0.2,0,0.4-0.1,0.5-0.3
					C-264.2,428.4-264.2,428.2-264.3,428L-264.3,428z"/>
					<g class="st8">
						<defs>
							<polygon id="SVGID_7_" points="-284.7,429.3 -263.7,429.3 -263.7,403.8 -284.7,403.8 -284.7,429.3 						"/>
						</defs>
						<clipPath id="SVGID_8_">
							<use xlink:href="#SVGID_7_" style="overflow:visible;"/>
						</clipPath>
						<polygon class="st9" points="-282.9,427.7 -274.3,411.6 -265.8,427.7 -282.9,427.7 -282.9,427.7 					"/>
						<g class="st10">
							<defs>
								<polygon id="SVGID_9_" points="-284.7,429.3 -263.7,429.3 -263.7,403.8 -284.7,403.8 -284.7,429.3 							"/>
							</defs>
							<clipPath id="SVGID_10_">
								<use xlink:href="#SVGID_9_" style="overflow:visible;"/>
							</clipPath>
							<polygon class="st11" points="-274.5,418.4 -274,418.4 -274,426.4 -274.5,426.4 -274.5,418.4 						"/>
							<polygon class="st12" points="-274.5,418.4 -274,418.4 -274,426.4 -274.5,426.4 -274.5,418.4 						"/>
							<g class="st13">
								<defs>
									<polygon id="SVGID_11_" points="-284.7,429.3 -263.7,429.3 -263.7,403.8 -284.7,403.8 -284.7,429.3 								"/>
								</defs>
								<clipPath id="SVGID_12_">
									<use xlink:href="#SVGID_11_" style="overflow:visible;"/>
								</clipPath>
								<polygon class="st14" points="-275.2,419.8 -274.8,419.8 -273.5,425 -273.8,425.1 -275.2,419.8 -275.2,419.8 							"/>
								<polygon class="st15" points="-275.2,419.8 -274.8,419.8 -273.5,425 -273.8,425.1 -275.2,419.8 -275.2,419.8 							"/>
								<g class="st16">
									<defs>
										<polygon id="SVGID_13_" points="-284.7,429.3 -263.7,429.3 -263.7,403.8 -284.7,403.8 -284.7,429.3 									"/>
									</defs>
									<clipPath id="SVGID_14_">
										<use xlink:href="#SVGID_13_" style="overflow:visible;"/>
									</clipPath>
									<polygon class="st17" points="-276.3,419 -276,418.8 -272.2,425.8 -272.4,426 -276.3,419 -276.3,419 								"/>
									<polygon class="st18" points="-276.3,419 -276,418.8 -272.2,425.8 -272.4,426 -276.3,419 -276.3,419 								"/>
									<g class="st19">
										<defs>
											<polygon id="SVGID_15_" points="-284.7,429.3 -263.7,429.3 -263.7,403.8 -284.7,403.8 -284.7,429.3 										"/>
										</defs>
										<clipPath id="SVGID_16_">
											<use xlink:href="#SVGID_15_" style="overflow:visible;"/>
										</clipPath>
										<polygon class="st20" points="-276.1,420.7 -275.9,420.5 -272.4,424.1 -272.6,424.4 -276.1,420.7 -276.1,420.7 									
										"/>
										<polygon class="st21" points="-276.1,420.7 -275.9,420.5 -272.4,424.1 -272.6,424.4 -276.1,420.7 -276.1,420.7 									
										"/>
										<g class="st22">
											<defs>
												<polygon id="SVGID_17_" points="-284.7,429.3 -263.7,429.3 -263.7,403.8 -284.7,403.8 -284.7,429.3 											"/>
											</defs>
											<clipPath id="SVGID_18_">
												<use xlink:href="#SVGID_17_" style="overflow:visible;"/>
											</clipPath>
											<polygon class="st23" points="-277.7,420.5 -277.5,420.2 -271,424.3 -271.2,424.6 -277.7,420.5 -277.7,420.5 										
											"/>
											<polygon class="st24" points="-277.7,420.5 -277.5,420.2 -271,424.3 -271.2,424.6 -277.7,420.5 -277.7,420.5 										
											"/>
											<g class="st25">
												<defs>
												<polygon id="SVGID_19_" points="-284.7,429.3 -263.7,429.3 -263.7,403.8 -284.7,403.8 -284.7,429.3 												"/>
												</defs>
												<clipPath id="SVGID_20_">
												<use xlink:href="#SVGID_19_" style="overflow:visible;"/>
												</clipPath>
												<polygon class="st26" points="-276.8,421.9 -276.7,421.6 -271.9,422.9 -272,423.2 -276.8,421.9 -276.8,421.9 											
												"/>
												<polygon class="st27" points="-276.8,421.9 -276.7,421.6 -271.9,422.9 -272,423.2 -276.8,421.9 -276.8,421.9 											
												"/>
												<g class="st28">
												<defs>
												<polygon id="SVGID_21_" points="-284.7,429.3 -263.7,429.3 -263.7,403.8 -284.7,403.8 -284.7,429.3 													"/>
												</defs>
												<clipPath id="SVGID_22_">
												<use xlink:href="#SVGID_21_" style="overflow:visible;"/>
												</clipPath>
												<polygon class="st29" points="-278.2,422.3 -268,422.3 -268,422.5 -278.2,422.5 -278.2,422.3 												"/>
												<polygon class="st30" points="-278.2,422.3 -268,422.3 -268,422.5 -278.2,422.5 -278.2,422.3 												"/>
												<g class="st31">
												<defs>
												<polygon id="SVGID_23_" points="-284.7,429.3 -263.7,429.3 -263.7,403.8 -284.7,403.8 -284.7,429.3 														"/>
												</defs>
												<clipPath id="SVGID_24_">
												<use xlink:href="#SVGID_23_" style="overflow:visible;"/>
												</clipPath>
												<polygon class="st32" points="-276.7,423.2 -276.8,422.9 -272,421.6 -271.9,421.9 -276.7,423.2 -276.7,423.2 
																											"/>
												<polygon class="st33" points="-276.7,423.2 -276.8,422.9 -272,421.6 -271.9,421.9 -276.7,423.2 -276.7,423.2 
																											"/>
												<g class="st34">
												<defs>
												<polygon id="SVGID_25_" points="-284.7,429.3 -263.7,429.3 -263.7,403.8 -284.7,403.8 -284.7,429.3 															
																"/>
												</defs>
												<clipPath id="SVGID_26_">
												<use xlink:href="#SVGID_25_" style="overflow:visible;"/>
												</clipPath>
												<polygon class="st35" points="-277.5,424.6 -277.7,424.3 -271.2,420.2 -271,420.5 -277.5,424.6 -277.5,424.6 
																													"/>
												<polygon class="st36" points="-277.5,424.6 -277.7,424.3 -271.2,420.2 -271,420.5 -277.5,424.6 -277.5,424.6 
																													"/>
												<g class="st37">
												<defs>
												<polygon id="SVGID_27_" points="-284.7,429.3 -263.7,429.3 -263.7,403.8 -284.7,403.8 -284.7,429.3 
																																	"/>
												</defs>
												<clipPath id="SVGID_28_">
												<use xlink:href="#SVGID_27_" style="overflow:visible;"/>
												</clipPath>
												<polygon class="st38" points="-275.9,424.4 -276.1,424.1 -272.6,420.5 -272.4,420.7 -275.9,424.4 -275.9,424.4 
																															"/>
												<polygon class="st39" points="-275.9,424.4 -276.1,424.1 -272.6,420.5 -272.4,420.7 -275.9,424.4 -275.9,424.4 
																															"/>
												<g class="st40">
												<defs>
												<polygon id="SVGID_29_" points="-284.7,429.3 -263.7,429.3 -263.7,403.8 -284.7,403.8 -284.7,429.3 
																																			"/>
												</defs>
												<clipPath id="SVGID_30_">
												<use xlink:href="#SVGID_29_" style="overflow:visible;"/>
												</clipPath>
												<polygon class="st41" points="-276,426 -276.3,425.8 -272.4,418.8 -272.2,419 -276,426 -276,426 																
																	"/>
												<polygon class="st42" points="-276,426 -276.3,425.8 -272.4,418.8 -272.2,419 -276,426 -276,426 																
																	"/>
												<g class="st43">
												<defs>
												<polygon id="SVGID_31_" points="-284.7,429.3 -263.7,429.3 -263.7,403.8 -284.7,403.8 -284.7,429.3 
																																					"/>
												</defs>
												<clipPath id="SVGID_32_">
												<use xlink:href="#SVGID_31_" style="overflow:visible;"/>
												</clipPath>
												<polygon class="st44" points="-274.8,425.1 -275.2,425 -273.8,419.8 -273.5,419.8 -274.8,425.1 -274.8,425.1 
																																			"/>
												<polygon class="st45" points="-274.8,425.1 -275.2,425 -273.8,419.8 -273.5,419.8 -274.8,425.1 -274.8,425.1 
																																			"/>
												</g>
												</g>
												</g>
												</g>
												</g>
												</g>
											</g>
										</g>
									</g>
								</g>
							</g>
						</g>
					</g>
				</g>
			</g>
		</g>
	</g>
</svg>
