<?xml version="1.0" encoding="utf-8"?>
<!-- Generator: Adobe Illustrator 16.0.3, SVG Export Plug-In . SVG Version: 6.00 Build 0)  -->
<!DOCTYPE svg PUBLIC "-//W3C//DTD SVG 1.1//EN" "http://www.w3.org/Graphics/SVG/1.1/DTD/svg11.dtd">
<svg version="1.1" id="Ebene_1" xmlns="http://www.w3.org/2000/svg" xmlns:xlink="http://www.w3.org/1999/xlink" x="0px" y="0px" width="13mm" height="13mm" viewBox="0 0 42.52 42.52" enable-background="new 0 0 42.52 42.52" xml:space="preserve">
<g id="Ebene_3">
		<path id="path1965" fill="none" stroke="#020304" stroke-width="1.0371" d="M21.26,21.259C21.263,21.257,21.26,21.27,21.26,21.259z
		"/>
		<g id="g1891" transform="translate(8.146196,8.022892)">
			<path id="path1877" fill="#F1E513" d="M13.068-4.16c-0.89,0-1.425,0.862-1.753,1.581C5.333,7.823-0.72,18.184-6.654,28.611
			c-0.364,1.041,0.683,2.212,1.759,1.999c12.216-0.019,24.436,0.039,36.65-0.032c1.069-0.204,1.589-1.686,0.863-2.508
			C26.488,17.494,20.434,6.871,14.254-3.673C13.95-3.987,13.511-4.18,13.068-4.16z"/>
			<g id="g4">
				<path id="sign_border" fill="#020304" d="M32.3,28.547L14.016-3.128c-0.188-0.322-0.528-0.515-0.896-0.515
				c-0.367,0-0.709,0.199-0.896,0.515L-6.062,28.547c-0.187,0.32-0.187,0.714,0,1.029c0.187,0.322,0.529,0.515,0.896,0.515h36.571
				c0.366,0,0.708-0.198,0.896-0.515C32.488,29.257,32.488,28.863,32.3,28.547z"/>
				<polygon id="sign_bg" fill="#EEE530" points="-3.376,28.025 13.118,-0.539 29.614,28.025 			"/>
			</g>
			<g id="g2892" transform="matrix(1.052559,0,0,1.052559,742.3144,-4.92249)">
				<path id="path1995" fill="#020304" d="M-690.464,27.825c0,1.284-1.039,2.319-2.319,2.319c-1.28,0-2.319-1.035-2.319-2.319
				c0-1.281,1.04-2.319,2.319-2.319C-691.504,25.506-690.464,26.544-690.464,27.825L-690.464,27.825z"/>
				<path id="rect1997" fill="#020304" stroke="#020304" stroke-width="0.8729" stroke-linecap="square" d="M-692.784,11.541
				c-1.265,0-2.281,1.039-2.281,2.33l0.674,8.159c0.129,1.057,0.24,1.654,0.675,1.936c0.285,0.131,0.599,0.202,0.932,0.202
				c0.331,0,0.646-0.071,0.929-0.2c0.439-0.281,0.55-0.88,0.677-1.938l0.677-8.159C-690.5,12.579-691.52,11.541-692.784,11.541z"/>
			</g>
		</g>
	</g>
</svg>
